<svg width="152" height="130" viewBox="0 0 152 130" fill="none" xmlns="http://www.w3.org/2000/svg">
<g id="Frame 1948757623">
<path id="Union" fill-rule="evenodd" clip-rule="evenodd" d="M38.2346 67.8623L38.8368 67.9063C40.6271 73.4126 38.106 80.0146 32.9597 82.6498V82.7078C38.0264 82.2579 44.624 77.1974 45.0119 69.3999L45.7591 69.3019V68.0863C44.2362 67.2625 43.24 63.8355 45.3732 62.0141C45.0098 57.4535 42.9909 52.9029 40.4229 49.7179L35.8218 47.0967L35.1215 48.5422C34.5079 48.8852 34.0114 49.3984 33.6946 50.017C33.378 50.6357 33.255 51.3323 33.3415 52.0192C33.562 53.6746 34.7705 54.6884 36.9873 55.0183C38.1284 55.1842 38.547 55.6621 38.7511 56.3038C38.9552 56.9816 38.8961 57.6695 38.3428 58.0673L38.4326 58.3552C39.4308 58.4172 39.9474 58.9551 40.1555 59.7408C40.4025 60.6705 40.323 61.4363 39.5431 61.9641L39.5778 62.208C40.5005 62.514 41.0068 63.4077 41.0353 64.3013C41.066 65.2332 40.3638 66.1829 39.3104 66.5847C38.9634 66.7166 37.9263 66.9266 37.9263 66.9266L38.2346 67.8623ZM37.071 53.6367C35.689 53.8246 34.7684 53.0368 34.6051 51.8832C34.4255 50.6096 35.0991 49.616 36.481 49.43C37.808 49.2501 38.7838 50.0298 38.9633 51.2954C39.1348 52.457 38.4082 53.4587 37.071 53.6367ZM124.701 70.0763C126.328 70.0763 127.453 69.7304 127.996 68.8866L133.23 68.8926C132.458 72.2436 128.917 74.3749 124.701 74.3749C119.477 74.3749 115.862 71.048 115.862 66.1775C115.862 61.3069 119.479 57.98 124.701 57.98C129.923 57.98 133.503 61.311 133.503 66.1775V67.3571H120.739C121.231 69.0006 122.729 70.0763 124.701 70.0763ZM128.568 64.4301C128.043 62.7646 126.436 61.8648 124.701 61.8648C122.94 61.8648 121.27 62.8126 120.798 64.4301H128.568ZM4.92985 66.1763C4.92985 68.3215 6.38941 69.8252 8.8391 69.8252C10.7375 69.8252 12.0542 68.8933 12.5277 67.4739H17.5679C16.984 71.6226 13.5872 74.3777 8.8391 74.3777C3.61522 74.3777 0 71.0508 0 66.1802C0 61.3097 3.61522 57.9828 8.8391 57.9828C13.5953 57.9828 16.9472 60.702 17.5331 64.8507H12.491C12.0174 63.421 10.7028 62.5254 8.8391 62.5254C6.39151 62.5254 4.92985 64.0309 4.92985 66.1763ZM142.656 68.3218L146.739 58.3049L152 58.3408L144.22 75.7994C143.483 77.341 142.202 78.3027 139.387 78.3027H133.809V74.082H138.947C139.857 74.082 140.092 73.5441 139.763 72.8664L132.97 58.3049H138.573L142.656 68.3218ZM69.12 58.0914C68.1086 58.1043 67.1108 58.3216 66.1891 58.7296C65.2675 59.1377 64.4416 59.7277 63.7635 60.4627C62.8143 58.9931 61.1812 58.0914 58.456 58.0914C57.5638 58.0813 56.6807 58.2673 55.8717 58.6359C55.0626 59.0045 54.3482 59.546 53.7813 60.2208V58.3053H48.9229V74.0826H53.7813V66.033C53.7813 63.2778 55.1695 62.5981 57.0312 62.5981C59.0031 62.5981 60.0931 63.4937 60.0931 66.033V74.0826H64.9515V66.033C64.9515 63.2778 66.3397 62.5981 68.2014 62.5981C70.1754 62.5981 71.2635 63.4937 71.2635 66.033V74.0826H76.1219V66.033C76.1361 61.6024 74.4929 58.0914 69.12 58.0914ZM78.1571 66.1802C78.1571 61.3097 81.7723 57.9828 86.9962 57.9828C92.2179 57.9828 95.7984 61.3097 95.7984 66.1802C95.7984 71.0508 92.22 74.3777 86.9962 74.3777C81.7723 74.3777 78.1571 71.0508 78.1571 66.1802ZM83.0869 66.1763C83.0869 68.3215 84.5465 69.8252 86.9962 69.8252C89.407 69.8252 90.8748 68.3236 90.8748 66.1763C90.8748 64.0289 89.407 62.5254 86.9962 62.5254C84.5486 62.5254 83.0869 64.0309 83.0869 66.1763ZM106.845 58.0916C106.058 58.0705 105.276 58.2211 104.557 58.5323C103.837 58.8436 103.196 59.3076 102.682 59.8911V58.3055H97.8238V74.0827H102.682V66.0331C102.682 63.278 104.07 62.5982 105.932 62.5982C107.904 62.5982 108.994 63.494 108.994 66.0331V74.0827H113.853V66.0331C113.859 61.6025 112.215 58.0916 106.845 58.0916ZM29.6586 64.311C33.3842 64.311 35.3948 66.1385 35.3948 68.9996C35.3948 72.2206 33.3842 74.082 29.6545 74.082H19.7193V70.1432H30.0057C30.1546 70.1505 30.3036 70.1284 30.4436 70.0781C30.5837 70.0279 30.712 69.9505 30.8209 69.8507C30.9298 69.7509 31.0171 69.6308 31.0778 69.4972C31.1383 69.3637 31.1707 69.2197 31.1734 69.0736C31.18 68.927 31.1554 68.7808 31.1015 68.6441C31.0475 68.5072 30.9651 68.383 30.8597 68.2788C30.7541 68.1748 30.6278 68.0933 30.4885 68.0394C30.3493 67.9855 30.2002 67.9605 30.0506 67.9658H25.0941C21.0033 67.9658 19.2131 65.8186 19.2131 63.2414C19.2131 60.4523 21.0115 58.3049 25.0941 58.3049H34.9396V62.2396H24.6655C24.0796 62.2396 23.4918 62.5755 23.4918 63.2193C23.4918 63.9351 24.1061 64.311 24.69 64.311H29.6586Z" fill="url(#paint0_linear_1_2648)"/>
</g>
<defs>
<linearGradient id="paint0_linear_1_2648" x1="76" y1="47.0967" x2="76" y2="82.7078" gradientUnits="userSpaceOnUse">
<stop stop-color="#B2B6BF"/>
<stop offset="1" stop-color="white"/>
</linearGradient>
</defs>
</svg>
