<svg width="103" height="36" viewBox="0 0 103 36" fill="none" xmlns="http://www.w3.org/2000/svg">
<g id="Frame 1948757585">
<g id="Vector">
<path d="M33.0144 7.00738C31.0975 3.24854 29.5291 0.149358 29.5291 0.099572V0.0871255C29.5291 0.0373395 32.3796 0 35.8773 0C41.8645 0 42.2255 0.0124465 42.1632 0.211591C42.1259 0.336056 40.906 3.43524 39.4373 7.09451C37.9685 10.7538 36.7113 13.7658 36.6366 13.7907C36.5619 13.8032 34.9313 10.7538 33.0144 7.00738Z" fill="#C69B5C"/>
<path d="M40.5077 21.7316L44.8768 10.8658L49.2458 0.0124465H55.8803C62.1538 0.0124465 62.5147 0.024893 62.4276 0.224037C62.3778 0.348502 59.1291 8.42628 55.2081 18.1843C51.2872 27.9424 48.0384 35.9455 48.0135 35.9828C47.9762 36.0202 47.889 35.9953 47.8268 35.9206C47.7646 35.8459 46.0842 32.6347 40.5077 21.7316Z" fill="#C69B5C"/>
<path d="M65.0665 11.0276C67.4439 5.06573 69.4106 0.149358 69.4355 0.099572C69.4729 0.049786 72.4602 0.0124465 82.6796 0.0124465L81.3228 3.33566C80.5635 5.1653 77.3023 13.2182 74.0411 21.2337C70.7923 29.2368 68.0787 35.8086 68.0041 35.821C67.9294 35.8335 66.7718 33.6802 65.4274 31.0291C64.0831 28.378 62.4774 25.2291 60.7597 21.8561L65.0665 11.0276Z" fill="#C69B5C"/>
</g>
<path id="Vector_2" fill-rule="evenodd" clip-rule="evenodd" d="M8.92865 0L22.1105 0.0622325L23.7037 3.17386C24.575 4.89148 25.297 6.32282 25.297 6.38506C25.297 6.43484 23.8531 6.48463 18.8866 6.53441L17.1813 10.7662C16.2353 13.0937 15.4635 15.0354 15.4635 15.0976C15.4635 15.1474 17.2435 15.1723 23.3552 15.1225L24.7244 11.6748C25.4837 9.78295 26.131 8.21469 26.1683 8.17735C26.2057 8.14001 27.8114 11.2019 33.2384 21.8436L12.7002 21.9681L9.92445 28.8137C8.39341 32.5849 7.09888 35.6592 7.04909 35.6468C6.98686 35.6343 5.39359 32.5849 0.0536499 22.0925L8.92865 0ZM89.563 0H102.595L101.836 1.84208C101.413 2.85025 100.815 4.29404 99.9192 6.40995L87.0362 6.47218L87.198 6.07389C87.2975 5.84986 87.8577 4.39362 88.4676 2.8378L89.563 0ZM91.2309 12.0607C96.297 12.0607 97.6165 12.0856 97.5791 12.21C97.5542 12.2971 97.1061 13.4671 96.5709 14.7989C96.0481 16.1307 95.5128 17.5122 95.1394 18.5328H88.729C85.2064 18.5328 82.3186 18.4831 82.3186 18.4333C82.3186 18.3835 82.8663 16.977 83.5135 15.2968C84.1732 13.6165 84.7334 12.1976 84.7707 12.1478C84.7956 12.098 87.7083 12.0607 91.2309 12.0607ZM86.1275 24.7561C89.6501 24.7561 92.5255 24.7685 92.5255 24.781C92.5255 24.8059 91.6417 26.9965 88.5796 34.5266L82.1568 34.5515C77.0533 34.5764 75.7339 34.5515 75.7712 34.427C75.7961 34.3399 76.6675 32.1742 77.713 29.6102C78.7462 27.0463 79.6299 24.893 79.6673 24.8432C79.6922 24.7934 82.6049 24.7561 86.1275 24.7561Z" fill="white"/>
</g>
</svg>
