<svg width="70" height="24" viewBox="0 0 70 24" fill="none" xmlns="http://www.w3.org/2000/svg">
<path d="M22.7932 4.67159C21.5152 2.16569 20.4697 0.099572 20.4697 0.0663814V0.0580837C20.4697 0.024893 22.37 0 24.7018 0C28.6933 0 28.9339 0.00829768 28.8924 0.14106C28.8675 0.224037 28.0543 2.29016 27.0751 4.72967C26.0959 7.16919 25.2578 9.17722 25.208 9.19382C25.1582 9.20212 24.0711 7.16919 22.7932 4.67159Z" fill="white"/>
<path d="M27.7887 14.4877L30.7014 7.24387L33.6141 0.00829767H38.0371C42.2194 0.00829767 42.4601 0.0165953 42.402 0.149358C42.3688 0.232335 40.203 5.61752 37.589 12.1229C34.975 18.6283 32.8092 23.9637 32.7926 23.9886C32.7677 24.0135 32.7096 23.9969 32.6681 23.9471C32.6266 23.8973 31.5064 21.7565 27.7887 14.4877Z" fill="white"/>
<path d="M44.1612 7.35173C45.7462 3.37715 47.0573 0.099572 47.0739 0.0663814C47.0988 0.0331907 49.0904 0.00829767 55.9033 0.00829767L54.9988 2.22378C54.4926 3.44353 52.3184 8.81213 50.1443 14.1558C47.9784 19.4912 46.1694 23.8724 46.1196 23.8807C46.0698 23.889 45.2981 22.4535 44.4019 20.6861C43.5057 18.9187 42.4352 16.8194 41.29 14.5707L44.1612 7.35173Z" fill="white"/>
<path fill-rule="evenodd" clip-rule="evenodd" d="M6.73607 0L15.5239 0.0414883L16.5861 2.11591C17.167 3.26098 17.6483 4.21522 17.6483 4.2567C17.6483 4.2899 16.6857 4.32309 13.3747 4.35628L12.2378 7.17748C11.6072 8.72915 11.0927 10.0236 11.0927 10.0651C11.0927 10.0983 12.2793 10.1149 16.3538 10.0817L17.2666 7.78321C17.7728 6.52197 18.2043 5.47646 18.2292 5.45157C18.2541 5.42668 19.3245 7.4679 22.9426 14.5624L9.25044 14.6454L7.39993 19.2091C6.37924 21.7233 5.51622 23.7728 5.48303 23.7645C5.44153 23.7562 4.37936 21.7233 0.819397 14.7284L6.73607 0ZM60.4923 0H69.1806L68.6744 1.22806C68.3922 1.90017 67.9939 2.8627 67.3964 4.2733L58.8077 4.31479L58.9156 4.04926C58.982 3.8999 59.3554 2.92908 59.762 1.89187L60.4923 0ZM61.6043 8.04044C64.9817 8.04044 65.8613 8.05704 65.8364 8.14001C65.8198 8.1981 65.521 8.97808 65.1642 9.86593C64.8157 10.7538 64.4589 11.6748 64.2099 12.3552H59.9363C57.5879 12.3552 55.6627 12.322 55.6627 12.2888C55.6627 12.2557 56.0278 11.318 56.4593 10.1978C56.8991 9.07765 57.2725 8.13172 57.2974 8.09853C57.314 8.06533 59.2558 8.04044 61.6043 8.04044ZM58.202 16.5041C60.5504 16.5041 62.4673 16.5124 62.4673 16.5207C62.4673 16.5373 61.8781 17.9976 59.8367 23.0177L55.5548 23.0343C52.1525 23.0509 51.2729 23.0343 51.2978 22.9514C51.3144 22.8933 51.8953 21.4495 52.5923 19.7402C53.2811 18.0308 53.8703 16.5953 53.8952 16.5621C53.9118 16.529 55.8535 16.5041 58.202 16.5041Z" fill="white"/>
</svg>
