<svg width="174" height="36" viewBox="0 0 174 36" fill="none" xmlns="http://www.w3.org/2000/svg">
<g id="Frame 1948757584">
<g id="Vector">
<path d="M142.711 26.1532C142.332 25.4378 142.08 24.7435 142.143 24.6383C142.206 24.491 144.563 24.4279 154.852 24.4279L156.556 26.0059V30.0035L154.642 31.792H145.383V32.844H150.286C152.958 32.844 155.273 32.9071 155.399 32.9913C155.504 33.0754 155.862 33.6645 156.178 34.3168C156.493 34.948 156.746 35.5792 156.746 35.7265C156.746 35.9369 155.336 35.979 144.015 35.979L142.227 34.2116V30.4243L144.163 28.6359H153.379V27.5839L143.405 27.4787L142.711 26.1532Z" fill="#C69B5C"/>
<path d="M159.692 31.0556V27.7312V24.4279H161.165C162.28 24.4279 162.659 24.491 162.743 24.7435C162.806 24.9118 162.848 26.09 162.848 29.6879H170.844V27.3735C170.844 26.09 170.886 24.9118 170.949 24.7435C171.033 24.491 171.412 24.4279 174 24.4279V36H172.527C171.412 36 171.033 35.9159 170.949 35.6844C170.886 35.4951 170.844 34.7797 170.844 32.844L161.48 32.8229L159.692 31.0556Z" fill="#C69B5C"/>
</g>
<g id="Vector_2">
<path d="M174 18.0947C174 4.06078 173.958 0 173.916 0C173.853 0 173.243 0.715368 172.506 1.59906L171.201 3.19813L171.265 18.0947H174Z" fill="white"/>
<path d="M7.45366 26.7212L5.13906 24.4068C1.64611 24.4068 0.993813 24.4909 0.804436 24.6803C0.594017 24.9118 0.551934 26.1531 0.636101 30.4243L0.720269 35.8738H3.87655C3.96072 29.8141 4.06592 28.4044 4.19218 28.4044C4.29739 28.4044 5.60198 29.5827 7.07491 31.0345C8.56888 32.4652 9.91556 33.6645 10.0839 33.6645C10.2522 33.6645 11.5779 32.4652 13.0087 31.0345C14.4396 29.5827 15.7021 28.4044 15.7862 28.4044C15.8915 28.4044 15.9756 29.9825 15.9546 31.9182C15.9546 34.5482 16.0177 35.5161 16.2281 35.7054C16.3965 35.8738 16.9856 35.9579 17.8694 35.9158L19.2371 35.8738V24.512L14.8604 24.3857C11.4095 27.9836 10.2522 29.0357 10.0839 29.0357C9.91556 29.0146 8.71618 27.9836 7.45366 26.7212Z" fill="white"/>
<path d="M65.8448 32.7177L65.7396 24.512C60.8369 24.4278 59.3219 24.4699 59.2377 24.5541C59.1325 24.6382 59.0694 25.1432 59.0904 25.7113L59.1114 26.7212L62.5833 26.8264L62.6886 31.1397L60.374 33.4541L56.4812 33.4752L53.851 30.7189L51.0103 30.8241C50.9051 32.5915 50.9682 32.6756 52.6516 34.2957L54.377 35.979L62.5833 36L65.8448 32.7177Z" fill="white"/>
<path d="M100.375 27.7522L96.9026 24.3647C88.065 24.3857 85.4348 24.4489 85.3296 24.533C85.2454 24.5961 85.1823 25.1222 85.2034 25.6902L85.2244 26.7002H94.588C95.9768 28.0888 96.3766 28.5517 96.3766 28.6359C96.3766 28.7201 95.3035 28.8042 93.9989 28.8042C92.3786 28.8042 91.537 28.8884 91.3686 29.0567C91.2213 29.204 91.1161 29.751 91.1161 30.277C91.1372 31.2028 91.2003 31.287 93.4939 33.6014L95.8505 35.9579C98.8385 35.979 99.5118 35.8738 99.6802 35.7054C99.8906 35.474 99.5749 35.0742 98.1651 33.6435C97.1762 32.6546 96.3766 31.7288 96.3766 31.5815C96.3766 31.3922 96.9026 31.3291 98.2703 31.3291C99.7643 31.3291 100.185 31.2659 100.269 31.0134C100.332 30.8451 100.375 30.0245 100.375 29.225V27.7522Z" fill="white"/>
<path d="M121.627 26.3846L119.628 24.3857C110.138 24.3857 107.339 24.4278 107.255 24.4909C107.171 24.5541 107.424 25.2063 107.802 25.9638L108.476 27.3314H118.681V28.5938H109.254L107.318 30.3822L107.297 33.9591L109.107 35.9369C119.396 35.9579 121.627 35.8738 121.627 35.7475C121.627 35.6213 121.353 34.969 120.996 34.2747L120.364 33.0123H110.264V31.5395L119.838 31.5605C121.627 29.6458 121.627 29.6458 121.627 28.0047V26.3846Z" fill="white"/>
<path d="M88.2755 28.9094C88.1071 28.8463 87.4759 28.8042 86.8657 28.8042C86.2555 28.8042 85.6242 28.8884 85.4559 28.9725C85.2034 29.1198 85.1613 29.73 85.2454 32.5073L85.3296 35.8527C87.5811 35.9369 88.1703 35.8527 88.3386 35.6844C88.549 35.495 88.6121 34.5903 88.6121 32.2127C88.5911 29.5617 88.549 28.9936 88.2755 28.9094Z" fill="white"/>
<path d="M102.689 18.0736C102.689 4.20806 102.647 0.189358 102.605 0.189358C102.542 0.189358 102.352 0.399767 102.163 0.652251C101.974 0.925775 101.448 1.66218 100.985 2.29339L100.164 3.45061C100.185 11.4459 100.122 13.8235 100.059 13.9077C100.017 13.9918 99.7854 13.9077 99.575 13.6973C99.3645 13.5079 98.3966 12.6242 97.4497 11.7615C96.4818 10.8989 93.3676 8.03741 90.5269 5.40736L85.3296 0.631205C83.3306 0.610165 83.0781 0.694329 82.9098 1.03097C82.7835 1.28346 82.6994 4.64991 82.6994 9.76271V18.0736H85.4348L85.54 4.73407C91.9157 10.5833 95.1982 13.5921 96.9658 15.1701L100.164 18.0736H102.689Z" fill="white"/>
<path d="M34.4714 0.862655C34.5135 0.652251 31.4414 0.610165 19.6369 0.631205C11.4516 0.631205 4.46572 0.736409 4.10801 0.82057C3.77134 0.925772 3.16112 1.32554 2.78237 1.70426C2.40362 2.08299 1.87757 2.8194 1.62507 3.34541C1.26736 4.10286 1.16215 4.64991 1.18319 6.08065C1.18319 7.55348 1.26736 8.0374 1.70924 8.90005C1.98278 9.46814 2.57195 10.2256 3.03487 10.5833L3.83446 11.2355L31.8833 11.3407C32.4724 12.0771 32.6408 12.519 32.6408 12.8136C32.6197 13.1081 32.4935 13.55 32.3041 13.8025L31.9885 14.2864H3.89759L1.09902 17.9684C30.0526 18.0736 32.2831 18.0316 32.7881 17.758C33.1037 17.5897 33.5666 17.2741 33.7981 17.0847C34.0295 16.8743 34.4504 16.2852 34.7239 15.7592C35.0185 15.1701 35.25 14.2864 35.3131 13.4448C35.3762 12.6873 35.3131 11.5932 35.1658 11.0251C35.0185 10.436 34.6608 9.59439 34.3452 9.15254C34.0295 8.68966 33.5035 8.14261 33.1458 7.9322C32.5566 7.57452 31.7149 7.55347 18.69 7.55347C9.87348 7.55347 4.69718 7.46931 4.42364 7.34307C4.17113 7.21683 3.96072 6.8381 3.87655 6.33314C3.81342 5.80713 3.87655 5.40736 4.08697 5.07072L4.42364 4.60783L31.8833 4.58679C33.8402 1.91467 34.4293 1.00994 34.4714 0.862655Z" fill="white"/>
<path d="M41.0365 0.610166H38.301V18.0736H41.0365V11.3407H55.7658V18.0736H58.5012V0.610166H55.7658V7.34307H41.0365V0.610166Z" fill="white"/>
<path d="M71.7155 1.1993C71.5682 1.00994 71.1684 0.778489 70.8107 0.715368C70.3478 0.610166 70.0532 0.673292 69.7165 0.967857C69.464 1.17826 68.3909 3.00876 67.3178 5.02863C66.2657 7.04851 64.9611 9.51023 64.435 10.4991C63.9484 11.4139 63.0297 13.1748 62.2951 14.5828L62.1204 14.9176C61.384 16.3694 60.6685 17.6739 60.5212 17.8212C60.3319 18.0316 60.6685 18.0947 62.2467 18.0736H64.1825C68.6434 9.51023 70.0532 6.81706 70.1584 6.54354C70.2847 6.29106 70.4951 6.12274 70.6003 6.14378C70.7265 6.18586 72.1995 8.85798 73.8828 12.0982L76.9549 17.9684C79.7746 18.0526 80.5952 17.9895 80.5952 17.9053C80.5952 17.8212 80.1323 16.8954 79.5641 15.8644C78.996 14.8124 78.1123 13.1712 77.6072 12.1823C77.0812 11.1935 76.2606 9.63647 75.7766 8.7107C75.2716 7.78492 74.2195 5.78609 73.4199 4.29223C72.6203 2.77732 71.8418 1.38866 71.7155 1.1993Z" fill="white"/>
<path d="M124.888 4.50262L124.994 0.610166C113.673 0.631206 110.138 0.71537 109.843 0.799531C109.549 0.883692 109.044 1.13618 108.686 1.34658C108.349 1.55698 107.781 1.97779 107.466 2.27235C107.129 2.56692 106.561 3.34541 106.161 3.97662C105.782 4.60783 105.298 5.78609 105.109 6.60666C104.856 7.65868 104.793 8.62653 104.856 9.97311C104.92 11.0041 105.13 12.4348 105.319 13.1292C105.509 13.8235 106.014 14.8966 106.456 15.5488C106.876 16.18 107.634 16.9795 108.139 17.3372L109.044 17.9684C121.816 18.0736 123.521 18.0316 123.899 17.8212C124.173 17.6739 124.531 17.1689 124.699 16.706C124.951 16.0327 124.994 14.9807 124.951 11.6563L124.888 7.44827L117.103 7.32203C114.914 10.0994 114.262 11.0041 114.262 11.1303C114.262 11.2566 115.735 11.3407 118.26 11.3407H122.258V14.2864L122.247 14.2864C110.033 14.2653 109.948 14.2652 109.317 13.7814C108.981 13.5289 108.476 12.8977 108.223 12.3717C107.971 11.8667 107.697 10.8778 107.613 10.1835C107.529 9.40502 107.571 8.50029 107.718 7.86908C107.865 7.27995 108.223 6.43834 108.539 5.99649C108.854 5.55464 109.296 5.07072 109.528 4.94448C109.822 4.7972 112.432 4.67095 117.418 4.60783L124.888 4.50262Z" fill="white"/>
<path d="M129.623 0.610166H126.887V18.0736H129.623V11.3407H144.352V18.0736H147.087V0.610166H144.352V7.34307H129.623V0.610166Z" fill="white"/>
<path d="M159.923 0.988896C159.628 0.778492 159.25 0.589127 159.081 0.589127C158.913 0.610167 158.555 0.736409 158.303 0.925772C158.029 1.09409 157.314 2.25132 156.683 3.4927C156.03 4.73408 154.999 6.75394 154.347 7.97428C153.728 9.13159 152.807 10.8377 152.229 11.9081L152.138 12.0771C151.59 13.1081 150.644 14.8966 150.054 16.0117L148.981 18.0736L152.664 18.0947C156.157 11.467 157.566 8.77382 158.071 7.80596C158.576 6.85915 159.06 6.1017 159.144 6.12274C159.25 6.16482 159.734 6.94331 160.218 7.86908C160.723 8.79486 162.048 11.3407 163.185 13.55C164.321 15.7382 165.352 17.6739 165.478 17.8212C165.646 18.0105 166.278 18.0947 167.456 18.0736C168.403 18.0736 169.181 17.9895 169.181 17.9053C169.181 17.8212 168.424 16.3273 167.477 14.602C166.551 12.8556 165.688 11.2566 165.541 11.0251C165.415 10.7937 165.015 10.0362 164.657 9.3419C164.279 8.64757 163.185 6.56458 162.217 4.73407C161.249 2.88253 160.218 1.1993 159.923 0.988896Z" fill="white"/>
<path fill-rule="evenodd" clip-rule="evenodd" d="M132.484 24.0912C133.242 24.1543 133.957 24.4068 134.694 24.8486C135.304 25.2063 135.977 25.7113 136.188 25.9638C136.377 26.1952 136.693 26.6581 136.861 26.9737C137.029 27.2893 137.261 28.0047 137.387 28.5517C137.534 29.2671 137.745 29.6248 138.082 29.7721C138.502 29.9614 138.544 30.1297 138.544 33.3489L137.85 33.4541C137.366 33.5172 137.051 33.7487 136.756 34.2326C136.503 34.6534 135.914 35.1163 135.22 35.453C134.294 35.8948 133.831 35.979 132.127 35.979C130.801 35.979 129.917 35.8738 129.496 35.6634C129.139 35.495 128.613 35.2636 128.276 35.1374C127.96 35.0111 127.498 34.5903 127.224 34.1905C126.887 33.6645 126.614 33.4541 126.235 33.4541C125.94 33.4541 125.562 33.3069 125.393 33.1175C125.12 32.8229 125.12 32.5283 125.288 31.3711C125.456 30.2349 125.583 29.9404 125.961 29.7721C126.235 29.6458 126.445 29.4144 126.445 29.2461C126.445 29.0567 126.593 28.4044 126.803 27.7943C127.035 27.0999 127.497 26.3214 127.96 25.8375C128.402 25.3957 129.076 24.8697 129.433 24.6803C129.812 24.4909 130.401 24.2595 130.759 24.1543C131.096 24.0701 131.895 24.0491 132.484 24.0912ZM128.276 32.1286C127.834 31.8551 127.708 31.5815 127.666 30.9503C127.645 30.5085 127.708 30.0877 127.813 30.0035C127.918 29.9194 129.854 29.8773 136.23 29.9825V30.803C136.23 31.4553 136.104 31.7078 135.641 32.0655C135.094 32.4652 134.757 32.5073 131.958 32.5073C129.37 32.5073 128.76 32.4442 128.276 32.1286ZM129.412 30.9083C129.875 30.9083 130.254 30.9924 130.254 31.1187C130.254 31.2239 129.875 31.3291 129.412 31.3291C128.949 31.3291 128.571 31.2239 128.571 31.1187C128.571 30.9924 128.949 30.9083 129.412 30.9083ZM134.462 30.9083C134.925 30.9083 135.304 30.9924 135.304 31.1187C135.304 31.2239 134.925 31.3291 134.462 31.3291C133.999 31.3291 133.621 31.2239 133.621 31.1187C133.621 30.9924 133.999 30.9083 134.462 30.9083Z" fill="white"/>
<path fill-rule="evenodd" clip-rule="evenodd" d="M71.463 24.4068L79.8377 24.4278L83.1202 27.668L83.0992 32.5073L79.6273 36H71.4209L67.9701 32.5073L68.0332 27.9205L71.463 24.4068ZM71.2947 30.0877C71.2316 29.1829 71.2947 29.0777 72.4941 27.9205L73.7355 26.7212H77.3337L79.7535 28.8253V30.0246C79.7535 31.2028 79.7114 31.2659 77.5441 33.4541L73.5462 33.4331L72.4309 32.2338C71.4841 31.2028 71.3157 30.9082 71.2947 30.0877Z" fill="white"/>
<path fill-rule="evenodd" clip-rule="evenodd" d="M24.8553 24.4068H45.8551L49.2428 27.8784V31.6657C49.2428 34.4851 49.1586 35.5161 48.9693 35.7054C48.8009 35.8738 48.2118 35.9579 45.9603 35.8738L45.8551 33.2437H24.8132V34.5061C24.8132 35.6423 24.7711 35.7686 24.3292 35.8738C24.0767 35.9369 23.3403 35.9579 21.5517 35.8738L21.3834 27.6049L24.8553 24.4068ZM24.7922 29.8773C24.7501 29.0988 24.8553 28.9305 25.9705 27.8784L27.1909 26.7212H43.4353L44.6557 27.9416C45.7499 29.0146 45.8761 29.225 45.7499 30.6137L24.8132 30.7189L24.7922 29.8773Z" fill="white"/>
</g>
</g>
</svg>
