<svg width="20" height="20" viewBox="0 0 20 20" fill="none" xmlns="http://www.w3.org/2000/svg">
<g id="sparkles" clip-path="url(#clip0_1_2271)">
<path id="Vector" d="M8.12505 20C7.92753 20.001 7.73441 19.9417 7.57149 19.83C7.40857 19.7183 7.28362 19.5596 7.21333 19.375L5.65708 15.3281C5.62556 15.2466 5.57734 15.1725 5.51552 15.1107C5.4537 15.0489 5.37964 15.0007 5.2981 14.9692L1.25005 13.4117C1.06565 13.341 0.907048 13.2159 0.795172 13.0532C0.683295 12.8904 0.623405 12.6975 0.623405 12.5C0.623405 12.3025 0.683295 12.1096 0.795172 11.9469C0.907048 11.7841 1.06565 11.6591 1.25005 11.5883L5.29692 10.032C5.37847 10.0005 5.45253 9.95231 5.51435 9.89049C5.57617 9.82867 5.62439 9.75461 5.65591 9.67306L7.21333 5.62501C7.2841 5.44062 7.40912 5.28201 7.5719 5.17014C7.73467 5.05826 7.92754 4.99837 8.12505 4.99837C8.32256 4.99837 8.51543 5.05826 8.6782 5.17014C8.84097 5.28201 8.96599 5.44062 9.03677 5.62501L10.593 9.67189C10.6245 9.75344 10.6728 9.8275 10.7346 9.88932C10.7964 9.95114 10.8705 9.99935 10.952 10.0309L14.9754 11.5789C15.1673 11.6501 15.3327 11.7786 15.4489 11.947C15.5651 12.1155 15.6266 12.3157 15.625 12.5203C15.6221 12.7144 15.5609 12.9031 15.4495 13.062C15.338 13.221 15.1815 13.3428 15 13.4117L10.9532 14.968C10.8716 14.9995 10.7976 15.0477 10.7357 15.1095C10.6739 15.1714 10.6257 15.2454 10.5942 15.327L9.03677 19.375C8.96648 19.5596 8.84152 19.7183 8.67861 19.83C8.51569 19.9417 8.32257 20.001 8.12505 20ZM3.43755 6.87501C3.32175 6.87501 3.20867 6.83992 3.11321 6.77437C3.01775 6.70883 2.94438 6.6159 2.90278 6.50783L2.24419 4.79533C2.22991 4.75787 2.20788 4.72386 2.17954 4.69552C2.1512 4.66718 2.11719 4.64515 2.07974 4.63087L0.367236 3.97228C0.259181 3.93067 0.166266 3.8573 0.100733 3.76184C0.0351994 3.66638 0.00012207 3.5533 0.00012207 3.43751C0.00012207 3.32172 0.0351994 3.20865 0.100733 3.11319C0.166266 3.01773 0.259181 2.94436 0.367236 2.90275L2.07974 2.24415C2.11715 2.22982 2.15113 2.20776 2.17946 2.17943C2.2078 2.1511 2.22985 2.11712 2.24419 2.0797L2.89692 0.382436C2.93373 0.282515 2.99708 0.194515 3.08015 0.127893C3.16322 0.0612707 3.26288 0.0185461 3.36841 0.00431091C3.49511 -0.0110913 3.62332 0.016244 3.73272 0.0819825C3.84212 0.147721 3.92644 0.2481 3.97231 0.367202L4.63091 2.0797C4.64525 2.11712 4.6673 2.1511 4.69563 2.17943C4.72397 2.20776 4.75795 2.22982 4.79536 2.24415L6.50786 2.90275C6.61592 2.94436 6.70883 3.01773 6.77436 3.11319C6.8399 3.20865 6.87497 3.32172 6.87497 3.43751C6.87497 3.5533 6.8399 3.66638 6.77436 3.76184C6.70883 3.8573 6.61592 3.93067 6.50786 3.97228L4.79536 4.63087C4.75791 4.64515 4.7239 4.66718 4.69555 4.69552C4.66721 4.72386 4.64518 4.75787 4.63091 4.79533L3.97231 6.50783C3.93071 6.6159 3.85735 6.70883 3.76189 6.77437C3.66643 6.83992 3.55335 6.87501 3.43755 6.87501ZM15.625 10C15.4987 9.99998 15.3754 9.96166 15.2713 9.89011C15.1672 9.81856 15.0872 9.71715 15.0418 9.59923L14.1497 7.28009C14.134 7.23923 14.1099 7.20211 14.0789 7.17116C14.0479 7.1402 14.0108 7.1161 13.97 7.1004L11.6508 6.20822C11.533 6.16282 11.4317 6.0828 11.3602 5.97869C11.2888 5.87459 11.2506 5.75128 11.2506 5.62501C11.2506 5.49875 11.2888 5.37544 11.3602 5.27134C11.4317 5.16723 11.533 5.08721 11.6508 5.04181L13.97 4.14962C14.0108 4.13393 14.0479 4.10982 14.0789 4.07887C14.1099 4.04791 14.134 4.0108 14.1497 3.96994L15.0352 1.6672C15.0756 1.55831 15.1448 1.46241 15.2354 1.3897C15.326 1.317 15.4346 1.27021 15.5497 1.25431C15.6879 1.23757 15.8278 1.2675 15.9471 1.33933C16.0664 1.41116 16.1583 1.52078 16.2083 1.6508L17.1004 3.96994C17.1161 4.0108 17.1402 4.04791 17.1712 4.07887C17.2021 4.10982 17.2393 4.13393 17.2801 4.14962L19.5993 5.04181C19.7171 5.08721 19.8184 5.16723 19.8898 5.27134C19.9613 5.37544 19.9995 5.49875 19.9995 5.62501C19.9995 5.75128 19.9613 5.87459 19.8898 5.97869C19.8184 6.0828 19.7171 6.16282 19.5993 6.20822L17.2801 7.1004C17.2393 7.1161 17.2021 7.1402 17.1712 7.17116C17.1402 7.20211 17.1161 7.23923 17.1004 7.28009L16.2083 9.59923C16.1629 9.71715 16.0829 9.81856 15.9788 9.89011C15.8747 9.96166 15.7514 9.99998 15.625 10Z" fill="url(#paint0_linear_1_2271)"/>
</g>
<defs>
<linearGradient id="paint0_linear_1_2271" x1="9.99983" y1="0.00012207" x2="9.99983" y2="20" gradientUnits="userSpaceOnUse">
<stop stop-color="#FFD291"/>
<stop offset="1" stop-color="#C69B5C"/>
</linearGradient>
<clipPath id="clip0_1_2271">
<rect width="20" height="20" fill="white"/>
</clipPath>
</defs>
</svg>
